# xmcd
#
# Track frame offsets:
#	150
#	16549
#	32654
#	47752
#	64811
#	87250
#	111284
#	129084
#	144370
#	160420
#	177640
#	194458
#	214035
#	231737
#	247284
#	267517
#	287723
#	308372
#	326936
#	341847
#
# Disc length: 4757 seconds
#
# Revision: 0
# Processed by: cddbd v1.5.2PL0 Copyright (c) Steve Scherf et al.
# Submitted via: EasyCDDAExtractor 8.2.2.1
#
DISCID=31129314
DTITLE=Various Artist - With Love Disc 2
DYEAR=2005
DGENRE=Pop
TTITLE0=World Of Our Own - Westlife
TTITLE1=Escape - Enrique Iglesias
TTITLE2=Best In Me - Blue
TTITLE3=I`m All About You - Aaron Carter
TTITLE4=A World Without You - Emma Button
TTITLE5=Insatiable - Darren Hayes
TTITLE6=I`m Not a Girl, Not Yet a Woman - Britney Spears
TTITLE7=Love Should Be a Crime - O Town
TTITLE8=Caugh in The Middle - A1
TTITLE9=Cry - Mandy Moore
TTITLE10=Wall In Your Heart - Shelby Lynne
TTITLE11=Girlfriend - N`sync
TTITLE12=Mind Of it`s Own - Victoria Beckam
TTITLE13=What You Do About Me - M2M
TTITLE14=Calling - Geri Halliwell
TTITLE15=Back To Your Heart - Backstreet Boys
TTITLE16=Closer To Me - Five
TTITLE17=Run - Lighthouse Family
TTITLE18=Whenever, Whenever - Shakira
TTITLE19=Overprotected - Britney Spears
EXTD=
EXTT0=
EXTT1=
EXTT2=
EXTT3=
EXTT4=
EXTT5=
EXTT6=
EXTT7=
EXTT8=
EXTT9=
EXTT10=
EXTT11=
EXTT12=
EXTT13=
EXTT14=
EXTT15=
EXTT16=
EXTT17=
EXTT18=
EXTT19=
PLAYORDER=
